<svg xmlns="http://www.w3.org/2000/svg" xmlns:xlink="http://www.w3.org/1999/xlink" width="500" zoomAndPan="magnify" viewBox="0 0 375 374.999991" height="500" preserveAspectRatio="xMidYMid meet" version="1.0"><defs><g/><clipPath id="edbb12ca97"><path d="M 41.851562 141.761719 L 125 141.761719 L 125 226.511719 L 41.851562 226.511719 Z M 41.851562 141.761719 " clip-rule="nonzero"/></clipPath></defs><g clip-path="url(#edbb12ca97)"><path fill="#ffffff" d="M 83.382812 141.769531 C 60.453125 141.769531 41.863281 160.359375 41.863281 183.289062 L 41.863281 219.074219 C 41.863281 223.136719 45.15625 226.429688 49.21875 226.429688 C 66.214844 226.429688 79.996094 212.652344 79.996094 195.65625 L 79.996094 193.742188 L 76.78125 195.125 C 75.519531 195.671875 74.109375 194.742188 74.109375 193.367188 L 74.109375 192.871094 C 74.109375 191.109375 79.15625 187.941406 79.15625 186.414062 L 79.15625 175.144531 C 79.15625 175.144531 61.199219 182.660156 59.320312 181.953125 C 57.441406 181.25 56.738281 177.726562 60.261719 175.613281 C 63.78125 173.5 79.160156 162.234375 79.160156 162.234375 C 78.339844 147.914062 83.386719 148.382812 83.386719 148.382812 C 83.386719 148.382812 88.433594 147.914062 87.613281 162.234375 C 87.613281 162.234375 102.988281 173.5 106.507812 175.613281 C 110.03125 177.726562 109.328125 181.25 107.449219 181.953125 C 105.570312 182.660156 87.613281 175.144531 87.613281 175.144531 L 87.613281 186.414062 C 87.613281 187.941406 92.660156 191.109375 92.660156 192.871094 L 92.660156 193.367188 C 92.660156 194.742188 91.25 195.667969 89.988281 195.125 L 86.773438 193.742188 L 86.773438 195.65625 C 86.773438 212.652344 100.554688 226.429688 117.550781 226.429688 C 121.613281 226.429688 124.90625 223.136719 124.90625 219.074219 L 124.90625 183.289062 C 124.90625 160.359375 106.316406 141.769531 83.386719 141.769531 Z M 83.382812 141.769531 " fill-opacity="1" fill-rule="nonzero"/></g><path stroke-linecap="round" transform="matrix(0.000000001309, -0.75, 0.75, 0.000000001309, 146.099306, 224.281084)" fill="none" stroke-linejoin="miter" d="M 1.999779 1.9978 L 105.182078 1.9978 " stroke="#ffffff" stroke-width="4" stroke-opacity="1" stroke-miterlimit="4"/><g fill="#ffffff" fill-opacity="1"><g transform="translate(169.94954, 181.460387)"><g><path d="M 17.53125 -22.953125 C 19.175781 -22.953125 20.671875 -22.660156 22.015625 -22.078125 C 23.359375 -21.503906 24.519531 -20.691406 25.5 -19.640625 C 26.476562 -18.585938 27.234375 -17.335938 27.765625 -15.890625 C 28.304688 -14.441406 28.578125 -12.847656 28.578125 -11.109375 C 28.578125 -9.347656 28.304688 -7.738281 27.765625 -6.28125 C 27.234375 -4.820312 26.476562 -3.5625 25.5 -2.5 C 24.519531 -1.445312 23.359375 -0.632812 22.015625 -0.0625 C 20.671875 0.507812 19.175781 0.796875 17.53125 0.796875 C 15.707031 0.796875 14.050781 0.4375 12.5625 -0.28125 C 11.082031 -1.007812 9.847656 -2.03125 8.859375 -3.34375 C 7.640625 -0.78125 5.488281 0.5 2.40625 0.5 L 2.40625 -37.671875 C 4.851562 -37.171875 6.722656 -36.101562 8.015625 -34.46875 C 9.304688 -32.84375 9.953125 -30.726562 9.953125 -28.125 L 9.953125 -20.046875 C 10.898438 -20.984375 12.019531 -21.703125 13.3125 -22.203125 C 14.601562 -22.703125 16.007812 -22.953125 17.53125 -22.953125 Z M 15.21875 -5.21875 C 16.238281 -5.21875 17.144531 -5.460938 17.9375 -5.953125 C 18.738281 -6.453125 19.363281 -7.140625 19.8125 -8.015625 C 20.269531 -8.898438 20.5 -9.910156 20.5 -11.046875 C 20.5 -12.191406 20.269531 -13.203125 19.8125 -14.078125 C 19.363281 -14.953125 18.738281 -15.632812 17.9375 -16.125 C 17.144531 -16.625 16.238281 -16.875 15.21875 -16.875 C 14.195312 -16.875 13.285156 -16.625 12.484375 -16.125 C 11.691406 -15.632812 11.070312 -14.953125 10.625 -14.078125 C 10.175781 -13.203125 9.953125 -12.191406 9.953125 -11.046875 C 9.953125 -9.910156 10.175781 -8.898438 10.625 -8.015625 C 11.070312 -7.140625 11.691406 -6.453125 12.484375 -5.953125 C 13.285156 -5.460938 14.195312 -5.21875 15.21875 -5.21875 Z M 15.21875 -5.21875 "/></g></g></g><g fill="#ffffff" fill-opacity="1"><g transform="translate(196.214491, 181.460387)"><g><path d="M 14.265625 -22.953125 C 15.953125 -22.953125 17.53125 -22.703125 19 -22.203125 C 20.476562 -21.703125 21.78125 -20.96875 22.90625 -20 C 24.039062 -19.039062 24.925781 -17.851562 25.5625 -16.4375 C 26.207031 -15.019531 26.53125 -13.390625 26.53125 -11.546875 L 26.53125 -10.65625 C 26.53125 -9.976562 26.191406 -9.640625 25.515625 -9.640625 L 9.34375 -9.640625 C 9.445312 -8.117188 9.914062 -6.894531 10.75 -5.96875 C 11.582031 -5.039062 12.703125 -4.578125 14.109375 -4.578125 C 15.222656 -4.578125 16.140625 -4.800781 16.859375 -5.25 C 17.578125 -5.695312 18.085938 -6.257812 18.390625 -6.9375 C 18.523438 -7.21875 18.675781 -7.425781 18.84375 -7.5625 C 19.007812 -7.707031 19.222656 -7.78125 19.484375 -7.78125 L 25.0625 -7.78125 C 25.414062 -7.78125 25.679688 -7.675781 25.859375 -7.46875 C 26.035156 -7.257812 26.054688 -6.976562 25.921875 -6.625 C 25.335938 -4.957031 24.476562 -3.570312 23.34375 -2.46875 C 22.21875 -1.375 20.882812 -0.554688 19.34375 -0.015625 C 17.800781 0.523438 16.109375 0.796875 14.265625 0.796875 C 12.359375 0.796875 10.613281 0.523438 9.03125 -0.015625 C 7.445312 -0.554688 6.082031 -1.34375 4.9375 -2.375 C 3.800781 -3.40625 2.921875 -4.648438 2.296875 -6.109375 C 1.671875 -7.578125 1.359375 -9.222656 1.359375 -11.046875 C 1.359375 -12.859375 1.679688 -14.492188 2.328125 -15.953125 C 2.972656 -17.421875 3.867188 -18.675781 5.015625 -19.71875 C 6.171875 -20.757812 7.535156 -21.554688 9.109375 -22.109375 C 10.691406 -22.671875 12.410156 -22.953125 14.265625 -22.953125 Z M 9.4375 -13.71875 L 18.53125 -13.71875 C 18.46875 -14.914062 18.035156 -15.898438 17.234375 -16.671875 C 16.429688 -17.441406 15.359375 -17.828125 14.015625 -17.828125 C 12.628906 -17.828125 11.570312 -17.441406 10.84375 -16.671875 C 10.125 -15.898438 9.65625 -14.914062 9.4375 -13.71875 Z M 9.4375 -13.71875 "/></g></g></g><g fill="#ffffff" fill-opacity="1"><g transform="translate(220.42029, 181.460387)"><g><path d="M 4.875 12.5625 L 9.25 1.609375 L 0.65625 -21 C 0.539062 -21.351562 0.550781 -21.632812 0.6875 -21.84375 C 0.832031 -22.050781 1.085938 -22.15625 1.453125 -22.15625 L 6.984375 -22.15625 C 7.554688 -22.15625 7.941406 -21.882812 8.140625 -21.34375 L 13.0625 -6.328125 L 15.78125 -14.515625 C 16.71875 -17.316406 18.046875 -19.375 19.765625 -20.6875 C 21.492188 -22 23.644531 -22.65625 26.21875 -22.65625 L 15.71875 4.625 C 14.664062 7.332031 13.269531 9.332031 11.53125 10.625 C 9.789062 11.914062 7.570312 12.5625 4.875 12.5625 Z M 4.875 12.5625 "/></g></g></g><g fill="#ffffff" fill-opacity="1"><g transform="translate(243.270076, 181.460387)"><g><path d="M 14.0625 0.796875 C 12.09375 0.796875 10.320312 0.507812 8.75 -0.0625 C 7.1875 -0.632812 5.851562 -1.453125 4.75 -2.515625 C 3.65625 -3.585938 2.820312 -4.847656 2.25 -6.296875 C 1.6875 -7.742188 1.40625 -9.328125 1.40625 -11.046875 C 1.40625 -12.785156 1.691406 -14.378906 2.265625 -15.828125 C 2.847656 -17.285156 3.6875 -18.546875 4.78125 -19.609375 C 5.882812 -20.671875 7.210938 -21.492188 8.765625 -22.078125 C 10.328125 -22.660156 12.09375 -22.953125 14.0625 -22.953125 C 16.019531 -22.953125 17.773438 -22.660156 19.328125 -22.078125 C 20.890625 -21.492188 22.210938 -20.671875 23.296875 -19.609375 C 24.390625 -18.546875 25.222656 -17.285156 25.796875 -15.828125 C 26.378906 -14.378906 26.671875 -12.785156 26.671875 -11.046875 C 26.671875 -8.722656 26.164062 -6.664062 25.15625 -4.875 C 24.15625 -3.09375 22.710938 -1.703125 20.828125 -0.703125 C 18.953125 0.296875 16.695312 0.796875 14.0625 0.796875 Z M 14.0625 -5.078125 C 15.164062 -5.078125 16.097656 -5.332031 16.859375 -5.84375 C 17.628906 -6.363281 18.207031 -7.070312 18.59375 -7.96875 C 18.988281 -8.863281 19.1875 -9.875 19.1875 -11 C 19.1875 -12.132812 18.988281 -13.160156 18.59375 -14.078125 C 18.207031 -15.003906 17.628906 -15.734375 16.859375 -16.265625 C 16.097656 -16.804688 15.164062 -17.078125 14.0625 -17.078125 C 12.957031 -17.078125 12.019531 -16.804688 11.25 -16.265625 C 10.476562 -15.722656 9.890625 -14.988281 9.484375 -14.0625 C 9.085938 -13.144531 8.890625 -12.125 8.890625 -11 C 8.890625 -9.894531 9.085938 -8.894531 9.484375 -8 C 9.878906 -7.101562 10.457031 -6.390625 11.21875 -5.859375 C 11.988281 -5.335938 12.9375 -5.078125 14.0625 -5.078125 Z M 14.0625 -5.078125 "/></g></g></g><g fill="#ffffff" fill-opacity="1"><g transform="translate(267.626553, 181.460387)"><g><path d="M 16.671875 -22.953125 C 18.648438 -22.953125 20.25 -22.53125 21.46875 -21.6875 C 22.695312 -20.84375 23.59375 -19.660156 24.15625 -18.140625 C 24.726562 -16.628906 25.015625 -14.867188 25.015625 -12.859375 L 25.015625 -1 C 25.015625 -0.332031 24.679688 0 24.015625 0 L 18.484375 0 C 17.816406 0 17.484375 -0.332031 17.484375 -1 L 17.484375 -12.859375 C 17.484375 -14.160156 17.21875 -15.160156 16.6875 -15.859375 C 16.164062 -16.566406 15.304688 -16.921875 14.109375 -16.921875 C 13.046875 -16.921875 12.125 -16.523438 11.34375 -15.734375 C 10.5625 -14.953125 10.097656 -13.867188 9.953125 -12.484375 L 9.953125 -1 C 9.953125 -0.332031 9.613281 0 8.9375 0 L 3.421875 0 C 2.742188 0 2.40625 -0.332031 2.40625 -1 L 2.40625 -22.65625 C 3.894531 -22.351562 5.171875 -21.832031 6.234375 -21.09375 C 7.304688 -20.363281 8.148438 -19.4375 8.765625 -18.3125 C 9.898438 -20 11.140625 -21.191406 12.484375 -21.890625 C 13.828125 -22.597656 15.222656 -22.953125 16.671875 -22.953125 Z M 16.671875 -22.953125 "/></g></g></g><g fill="#ffffff" fill-opacity="1"><g transform="translate(290.978574, 181.460387)"><g><path d="M 20.09375 -20.046875 L 20.09375 -37.671875 C 22.539062 -37.171875 24.40625 -36.101562 25.6875 -34.46875 C 26.976562 -32.84375 27.625 -30.726562 27.625 -28.125 L 27.625 0.5 C 24.539062 0.5 22.390625 -0.78125 21.171875 -3.34375 C 20.203125 -2.03125 18.972656 -1.007812 17.484375 -0.28125 C 16.003906 0.4375 14.347656 0.796875 12.515625 0.796875 C 10.890625 0.796875 9.394531 0.507812 8.03125 -0.0625 C 6.675781 -0.632812 5.507812 -1.445312 4.53125 -2.5 C 3.550781 -3.5625 2.789062 -4.820312 2.25 -6.28125 C 1.71875 -7.738281 1.453125 -9.347656 1.453125 -11.109375 C 1.453125 -12.847656 1.71875 -14.441406 2.25 -15.890625 C 2.789062 -17.335938 3.550781 -18.585938 4.53125 -19.640625 C 5.507812 -20.691406 6.675781 -21.503906 8.03125 -22.078125 C 9.394531 -22.660156 10.890625 -22.953125 12.515625 -22.953125 C 14.046875 -22.953125 15.453125 -22.703125 16.734375 -22.203125 C 18.015625 -21.703125 19.132812 -20.984375 20.09375 -20.046875 Z M 14.8125 -5.21875 C 15.832031 -5.21875 16.738281 -5.460938 17.53125 -5.953125 C 18.332031 -6.453125 18.957031 -7.140625 19.40625 -8.015625 C 19.863281 -8.898438 20.09375 -9.910156 20.09375 -11.046875 C 20.09375 -12.191406 19.863281 -13.203125 19.40625 -14.078125 C 18.957031 -14.953125 18.332031 -15.632812 17.53125 -16.125 C 16.738281 -16.625 15.832031 -16.875 14.8125 -16.875 C 13.789062 -16.875 12.882812 -16.625 12.09375 -16.125 C 11.300781 -15.632812 10.675781 -14.953125 10.21875 -14.078125 C 9.769531 -13.203125 9.546875 -12.191406 9.546875 -11.046875 C 9.546875 -9.910156 9.769531 -8.898438 10.21875 -8.015625 C 10.675781 -7.140625 11.300781 -6.453125 12.09375 -5.953125 C 12.882812 -5.460938 13.789062 -5.21875 14.8125 -5.21875 Z M 14.8125 -5.21875 "/></g></g></g><g fill="#ffffff" fill-opacity="1"><g transform="translate(169.94954, 224.945429)"><g><path d="M 17.53125 -22.953125 C 19.175781 -22.953125 20.671875 -22.660156 22.015625 -22.078125 C 23.359375 -21.503906 24.519531 -20.691406 25.5 -19.640625 C 26.476562 -18.585938 27.234375 -17.335938 27.765625 -15.890625 C 28.304688 -14.441406 28.578125 -12.847656 28.578125 -11.109375 C 28.578125 -9.347656 28.304688 -7.738281 27.765625 -6.28125 C 27.234375 -4.820312 26.476562 -3.5625 25.5 -2.5 C 24.519531 -1.445312 23.359375 -0.632812 22.015625 -0.0625 C 20.671875 0.507812 19.175781 0.796875 17.53125 0.796875 C 15.707031 0.796875 14.050781 0.4375 12.5625 -0.28125 C 11.082031 -1.007812 9.847656 -2.03125 8.859375 -3.34375 C 7.640625 -0.78125 5.488281 0.5 2.40625 0.5 L 2.40625 -37.671875 C 4.851562 -37.171875 6.722656 -36.101562 8.015625 -34.46875 C 9.304688 -32.84375 9.953125 -30.726562 9.953125 -28.125 L 9.953125 -20.046875 C 10.898438 -20.984375 12.019531 -21.703125 13.3125 -22.203125 C 14.601562 -22.703125 16.007812 -22.953125 17.53125 -22.953125 Z M 15.21875 -5.21875 C 16.238281 -5.21875 17.144531 -5.460938 17.9375 -5.953125 C 18.738281 -6.453125 19.363281 -7.140625 19.8125 -8.015625 C 20.269531 -8.898438 20.5 -9.910156 20.5 -11.046875 C 20.5 -12.191406 20.269531 -13.203125 19.8125 -14.078125 C 19.363281 -14.953125 18.738281 -15.632812 17.9375 -16.125 C 17.144531 -16.625 16.238281 -16.875 15.21875 -16.875 C 14.195312 -16.875 13.285156 -16.625 12.484375 -16.125 C 11.691406 -15.632812 11.070312 -14.953125 10.625 -14.078125 C 10.175781 -13.203125 9.953125 -12.191406 9.953125 -11.046875 C 9.953125 -9.910156 10.175781 -8.898438 10.625 -8.015625 C 11.070312 -7.140625 11.691406 -6.453125 12.484375 -5.953125 C 13.285156 -5.460938 14.195312 -5.21875 15.21875 -5.21875 Z M 15.21875 -5.21875 "/></g></g></g><g fill="#ffffff" fill-opacity="1"><g transform="translate(196.214491, 224.945429)"><g><path d="M 14.0625 0.796875 C 12.09375 0.796875 10.320312 0.507812 8.75 -0.0625 C 7.1875 -0.632812 5.851562 -1.453125 4.75 -2.515625 C 3.65625 -3.585938 2.820312 -4.847656 2.25 -6.296875 C 1.6875 -7.742188 1.40625 -9.328125 1.40625 -11.046875 C 1.40625 -12.785156 1.691406 -14.378906 2.265625 -15.828125 C 2.847656 -17.285156 3.6875 -18.546875 4.78125 -19.609375 C 5.882812 -20.671875 7.210938 -21.492188 8.765625 -22.078125 C 10.328125 -22.660156 12.09375 -22.953125 14.0625 -22.953125 C 16.019531 -22.953125 17.773438 -22.660156 19.328125 -22.078125 C 20.890625 -21.492188 22.210938 -20.671875 23.296875 -19.609375 C 24.390625 -18.546875 25.222656 -17.285156 25.796875 -15.828125 C 26.378906 -14.378906 26.671875 -12.785156 26.671875 -11.046875 C 26.671875 -8.722656 26.164062 -6.664062 25.15625 -4.875 C 24.15625 -3.09375 22.710938 -1.703125 20.828125 -0.703125 C 18.953125 0.296875 16.695312 0.796875 14.0625 0.796875 Z M 14.0625 -5.078125 C 15.164062 -5.078125 16.097656 -5.332031 16.859375 -5.84375 C 17.628906 -6.363281 18.207031 -7.070312 18.59375 -7.96875 C 18.988281 -8.863281 19.1875 -9.875 19.1875 -11 C 19.1875 -12.132812 18.988281 -13.160156 18.59375 -14.078125 C 18.207031 -15.003906 17.628906 -15.734375 16.859375 -16.265625 C 16.097656 -16.804688 15.164062 -17.078125 14.0625 -17.078125 C 12.957031 -17.078125 12.019531 -16.804688 11.25 -16.265625 C 10.476562 -15.722656 9.890625 -14.988281 9.484375 -14.0625 C 9.085938 -13.144531 8.890625 -12.125 8.890625 -11 C 8.890625 -9.894531 9.085938 -8.894531 9.484375 -8 C 9.878906 -7.101562 10.457031 -6.390625 11.21875 -5.859375 C 11.988281 -5.335938 12.9375 -5.078125 14.0625 -5.078125 Z M 14.0625 -5.078125 "/></g></g></g><g fill="#ffffff" fill-opacity="1"><g transform="translate(220.570967, 224.945429)"><g><path d="M 17.1875 -22.453125 C 17.46875 -22.390625 17.671875 -22.25 17.796875 -22.03125 C 17.921875 -21.820312 17.984375 -21.578125 17.984375 -21.296875 L 17.984375 -16.328125 C 17.984375 -15.972656 17.878906 -15.722656 17.671875 -15.578125 C 17.460938 -15.441406 17.179688 -15.421875 16.828125 -15.515625 C 15.972656 -15.722656 15.203125 -15.828125 14.515625 -15.828125 C 11.773438 -15.828125 10.253906 -14.269531 9.953125 -11.15625 L 9.953125 -1 C 9.953125 -0.332031 9.613281 0 8.9375 0 L 3.421875 0 C 2.742188 0 2.40625 -0.332031 2.40625 -1 L 2.40625 -22.65625 C 5.4375 -22.019531 7.566406 -20.546875 8.796875 -18.234375 C 9.578125 -19.835938 10.5625 -20.972656 11.75 -21.640625 C 12.9375 -22.316406 14.191406 -22.65625 15.515625 -22.65625 C 15.804688 -22.65625 16.09375 -22.632812 16.375 -22.59375 C 16.65625 -22.550781 16.925781 -22.503906 17.1875 -22.453125 Z M 17.1875 -22.453125 "/></g></g></g><g fill="#ffffff" fill-opacity="1"><g transform="translate(235.636156, 224.945429)"><g><path d="M 20.09375 -20.046875 L 20.09375 -37.671875 C 22.539062 -37.171875 24.40625 -36.101562 25.6875 -34.46875 C 26.976562 -32.84375 27.625 -30.726562 27.625 -28.125 L 27.625 0.5 C 24.539062 0.5 22.390625 -0.78125 21.171875 -3.34375 C 20.203125 -2.03125 18.972656 -1.007812 17.484375 -0.28125 C 16.003906 0.4375 14.347656 0.796875 12.515625 0.796875 C 10.890625 0.796875 9.394531 0.507812 8.03125 -0.0625 C 6.675781 -0.632812 5.507812 -1.445312 4.53125 -2.5 C 3.550781 -3.5625 2.789062 -4.820312 2.25 -6.28125 C 1.71875 -7.738281 1.453125 -9.347656 1.453125 -11.109375 C 1.453125 -12.847656 1.71875 -14.441406 2.25 -15.890625 C 2.789062 -17.335938 3.550781 -18.585938 4.53125 -19.640625 C 5.507812 -20.691406 6.675781 -21.503906 8.03125 -22.078125 C 9.394531 -22.660156 10.890625 -22.953125 12.515625 -22.953125 C 14.046875 -22.953125 15.453125 -22.703125 16.734375 -22.203125 C 18.015625 -21.703125 19.132812 -20.984375 20.09375 -20.046875 Z M 14.8125 -5.21875 C 15.832031 -5.21875 16.738281 -5.460938 17.53125 -5.953125 C 18.332031 -6.453125 18.957031 -7.140625 19.40625 -8.015625 C 19.863281 -8.898438 20.09375 -9.910156 20.09375 -11.046875 C 20.09375 -12.191406 19.863281 -13.203125 19.40625 -14.078125 C 18.957031 -14.953125 18.332031 -15.632812 17.53125 -16.125 C 16.738281 -16.625 15.832031 -16.875 14.8125 -16.875 C 13.789062 -16.875 12.882812 -16.625 12.09375 -16.125 C 11.300781 -15.632812 10.675781 -14.953125 10.21875 -14.078125 C 9.769531 -13.203125 9.546875 -12.191406 9.546875 -11.046875 C 9.546875 -9.910156 9.769531 -8.898438 10.21875 -8.015625 C 10.675781 -7.140625 11.300781 -6.453125 12.09375 -5.953125 C 12.882812 -5.460938 13.789062 -5.21875 14.8125 -5.21875 Z M 14.8125 -5.21875 "/></g></g></g><g fill="#ffffff" fill-opacity="1"><g transform="translate(261.951332, 224.945429)"><g><path d="M 14.265625 -22.953125 C 15.953125 -22.953125 17.53125 -22.703125 19 -22.203125 C 20.476562 -21.703125 21.78125 -20.96875 22.90625 -20 C 24.039062 -19.039062 24.925781 -17.851562 25.5625 -16.4375 C 26.207031 -15.019531 26.53125 -13.390625 26.53125 -11.546875 L 26.53125 -10.65625 C 26.53125 -9.976562 26.191406 -9.640625 25.515625 -9.640625 L 9.34375 -9.640625 C 9.445312 -8.117188 9.914062 -6.894531 10.75 -5.96875 C 11.582031 -5.039062 12.703125 -4.578125 14.109375 -4.578125 C 15.222656 -4.578125 16.140625 -4.800781 16.859375 -5.25 C 17.578125 -5.695312 18.085938 -6.257812 18.390625 -6.9375 C 18.523438 -7.21875 18.675781 -7.425781 18.84375 -7.5625 C 19.007812 -7.707031 19.222656 -7.78125 19.484375 -7.78125 L 25.0625 -7.78125 C 25.414062 -7.78125 25.679688 -7.675781 25.859375 -7.46875 C 26.035156 -7.257812 26.054688 -6.976562 25.921875 -6.625 C 25.335938 -4.957031 24.476562 -3.570312 23.34375 -2.46875 C 22.21875 -1.375 20.882812 -0.554688 19.34375 -0.015625 C 17.800781 0.523438 16.109375 0.796875 14.265625 0.796875 C 12.359375 0.796875 10.613281 0.523438 9.03125 -0.015625 C 7.445312 -0.554688 6.082031 -1.34375 4.9375 -2.375 C 3.800781 -3.40625 2.921875 -4.648438 2.296875 -6.109375 C 1.671875 -7.578125 1.359375 -9.222656 1.359375 -11.046875 C 1.359375 -12.859375 1.679688 -14.492188 2.328125 -15.953125 C 2.972656 -17.421875 3.867188 -18.675781 5.015625 -19.71875 C 6.171875 -20.757812 7.535156 -21.554688 9.109375 -22.109375 C 10.691406 -22.671875 12.410156 -22.953125 14.265625 -22.953125 Z M 9.4375 -13.71875 L 18.53125 -13.71875 C 18.46875 -14.914062 18.035156 -15.898438 17.234375 -16.671875 C 16.429688 -17.441406 15.359375 -17.828125 14.015625 -17.828125 C 12.628906 -17.828125 11.570312 -17.441406 10.84375 -16.671875 C 10.125 -15.898438 9.65625 -14.914062 9.4375 -13.71875 Z M 9.4375 -13.71875 "/></g></g></g><g fill="#ffffff" fill-opacity="1"><g transform="translate(286.157132, 224.945429)"><g><path d="M 17.1875 -22.453125 C 17.46875 -22.390625 17.671875 -22.25 17.796875 -22.03125 C 17.921875 -21.820312 17.984375 -21.578125 17.984375 -21.296875 L 17.984375 -16.328125 C 17.984375 -15.972656 17.878906 -15.722656 17.671875 -15.578125 C 17.460938 -15.441406 17.179688 -15.421875 16.828125 -15.515625 C 15.972656 -15.722656 15.203125 -15.828125 14.515625 -15.828125 C 11.773438 -15.828125 10.253906 -14.269531 9.953125 -11.15625 L 9.953125 -1 C 9.953125 -0.332031 9.613281 0 8.9375 0 L 3.421875 0 C 2.742188 0 2.40625 -0.332031 2.40625 -1 L 2.40625 -22.65625 C 5.4375 -22.019531 7.566406 -20.546875 8.796875 -18.234375 C 9.578125 -19.835938 10.5625 -20.972656 11.75 -21.640625 C 12.9375 -22.316406 14.191406 -22.65625 15.515625 -22.65625 C 15.804688 -22.65625 16.09375 -22.632812 16.375 -22.59375 C 16.65625 -22.550781 16.925781 -22.503906 17.1875 -22.453125 Z M 17.1875 -22.453125 "/></g></g></g><g fill="#ffffff" fill-opacity="1"><g transform="translate(301.22232, 224.945429)"><g><path d="M 13.359375 0.796875 C 11.234375 0.796875 9.320312 0.519531 7.625 -0.03125 C 5.925781 -0.59375 4.523438 -1.457031 3.421875 -2.625 C 2.328125 -3.800781 1.625 -5.320312 1.3125 -7.1875 C 1.257812 -7.519531 1.320312 -7.773438 1.5 -7.953125 C 1.6875 -8.140625 1.941406 -8.234375 2.265625 -8.234375 L 7.734375 -8.234375 C 8.035156 -8.234375 8.269531 -8.148438 8.4375 -7.984375 C 8.601562 -7.816406 8.722656 -7.582031 8.796875 -7.28125 C 8.941406 -6.695312 9.203125 -6.21875 9.578125 -5.84375 C 9.953125 -5.46875 10.378906 -5.171875 10.859375 -4.953125 C 11.335938 -4.742188 11.816406 -4.601562 12.296875 -4.53125 C 12.773438 -4.457031 13.179688 -4.421875 13.515625 -4.421875 C 14.703125 -4.421875 15.578125 -4.625 16.140625 -5.03125 C 16.703125 -5.445312 16.984375 -5.960938 16.984375 -6.578125 C 16.984375 -7.097656 16.769531 -7.507812 16.34375 -7.8125 C 15.925781 -8.113281 15.363281 -8.347656 14.65625 -8.515625 C 13.957031 -8.679688 13.164062 -8.828125 12.28125 -8.953125 C 11.40625 -9.078125 10.5 -9.222656 9.5625 -9.390625 C 8.625 -9.554688 7.71875 -9.773438 6.84375 -10.046875 C 5.96875 -10.328125 5.175781 -10.703125 4.46875 -11.171875 C 3.769531 -11.640625 3.207031 -12.25 2.78125 -13 C 2.363281 -13.757812 2.15625 -14.703125 2.15625 -15.828125 C 2.15625 -17.242188 2.554688 -18.488281 3.359375 -19.5625 C 4.171875 -20.632812 5.351562 -21.46875 6.90625 -22.0625 C 8.46875 -22.65625 10.382812 -22.953125 12.65625 -22.953125 C 15.601562 -22.953125 18.007812 -22.421875 19.875 -21.359375 C 21.75 -20.296875 22.960938 -18.6875 23.515625 -16.53125 C 23.597656 -16.175781 23.554688 -15.898438 23.390625 -15.703125 C 23.222656 -15.515625 22.960938 -15.421875 22.609375 -15.421875 L 17.234375 -15.421875 C 16.710938 -15.421875 16.328125 -15.707031 16.078125 -16.28125 C 15.773438 -16.925781 15.332031 -17.421875 14.75 -17.765625 C 14.175781 -18.109375 13.34375 -18.28125 12.25 -18.28125 C 11.382812 -18.28125 10.75 -18.132812 10.34375 -17.84375 C 9.945312 -17.550781 9.75 -17.210938 9.75 -16.828125 C 9.75 -16.335938 9.957031 -15.953125 10.375 -15.671875 C 10.789062 -15.390625 11.347656 -15.160156 12.046875 -14.984375 C 12.753906 -14.804688 13.546875 -14.648438 14.421875 -14.515625 C 15.304688 -14.378906 16.21875 -14.21875 17.15625 -14.03125 C 18.09375 -13.851562 19 -13.613281 19.875 -13.3125 C 20.757812 -13.007812 21.550781 -12.601562 22.25 -12.09375 C 22.957031 -11.582031 23.519531 -10.9375 23.9375 -10.15625 C 24.351562 -9.375 24.5625 -8.414062 24.5625 -7.28125 C 24.5625 -5.570312 24.117188 -4.113281 23.234375 -2.90625 C 22.347656 -1.707031 21.070312 -0.789062 19.40625 -0.15625 C 17.738281 0.476562 15.722656 0.796875 13.359375 0.796875 Z M 13.359375 0.796875 "/></g></g></g></svg>